# xmcd
#
# Track frame offsets: 
#        150
#        19697
#        34432
#        45662
#        67357
#        84117
#        101705
#        114367
#        141840
#        161137
#        177115
#        197042
#        210020
#        230000
#        245250
#        260220
#
# Disc length: 3712 seconds
#
# Revision: 0
# Processed by: cddbd v1.5.2PL0 Copyright (c) Steve Scherf et al.
# Submitted via: ExactAudioCopy v0.95b4
#
DISCID=df0e7e10
DTITLE=The Montclairs - The Montclairs
DYEAR=1990
DGENRE=R&B
TTITLE0=Ease The Pain
TTITLE1=Dreaming's Out Of Season
TTITLE2=Just Can't Get Away
TTITLE3=Beggin' Is Hard To Do
TTITLE4=Unwanted Love
TTITLE5=Out My Back Door
TTITLE6=Dawn Of My Life
TTITLE7=Angel
TTITLE8=A Horse With Wings
TTITLE9=How Can One Man Live
TTITLE10=Make Up For Lost Time
TTITLE11=I Need You More Than Never
TTITLE12=Prelude To A Heartbreak
TTITLE13=Hung Up On Your Love
TTITLE14=Baby (You Know I'm Gonna Miss You) Part 1
TTITLE15=Baby (You Know I'm Gonna Miss You) Part 2
EXTD=
EXTT0=
EXTT1=
EXTT2=
EXTT3=
EXTT4=
EXTT5=
EXTT6=
EXTT7=
EXTT8=
EXTT9=
EXTT10=
EXTT11=
EXTT12=
EXTT13=
EXTT14=
EXTT15=
PLAYORDER=
